{"accessors":[{"name":"Rectangle002_1_positions","componentType":5126,"count":24,"min":[-76.99870300292969,0,-22],"max":[77.00129699707031,30,50],"type":"VEC3","bufferView":0,"byteOffset":0},{"name":"Rectangle002_1_normals","componentType":5126,"count":24,"min":[-1,-1,-1],"max":[1,1,1],"type":"VEC3","bufferView":0,"byteOffset":7776},{"name":"Rectangle002_1_texcoords","componentType":5126,"count":24,"min":[0,0],"max":[1,1],"type":"VEC2","bufferView":1,"byteOffset":0},{"name":"Rectangle002_1_0_indices","componentType":5123,"count":36,"min":[0],"max":[23],"type":"SCALAR","bufferView":2,"byteOffset":0},{"name":"Rectangle007_1_positions","componentType":5126,"count":84,"min":[-76.99870300292969,0,50],"max":[76.97769927978516,400,53],"type":"VEC3","bufferView":0,"byteOffset":288},{"name":"Rectangle007_1_normals","componentType":5126,"count":84,"min":[-1,-1,-1],"max":[1,1,1],"type":"VEC3","bufferView":0,"byteOffset":8064},{"name":"Rectangle007_1_texcoords","componentType":5126,"count":84,"min":[0,0],"max":[1,1.575700044631958],"type":"VEC2","bufferView":1,"byteOffset":192},{"name":"Rectangle007_1_0_indices","componentType":5123,"count":114,"min":[0],"max":[45],"type":"SCALAR","bufferView":2,"byteOffset":72},{"name":"Rectangle007_1_1_indices","componentType":5123,"count":51,"min":[46],"max":[64],"type":"SCALAR","bufferView":2,"byteOffset":300},{"name":"Rectangle007_1_2_indices","componentType":5123,"count":51,"min":[65],"max":[83],"type":"SCALAR","bufferView":2,"byteOffset":404},{"name":"Rectangle213_1_positions","componentType":5126,"count":24,"min":[-76.9988021850586,143.99549865722656,-22],"max":[77.0011978149414,149.99549865722656,-19],"type":"VEC3","bufferView":0,"byteOffset":1296},{"name":"Rectangle213_1_normals","componentType":5126,"count":24,"min":[-1,-1,-1],"max":[1,0.707099974155426,1],"type":"VEC3","bufferView":0,"byteOffset":9072},{"name":"Rectangle213_1_texcoords","componentType":5126,"count":24,"min":[0,0],"max":[1,0.541700005531311],"type":"VEC2","bufferView":1,"byteOffset":864},{"name":"Rectangle213_1_0_indices","componentType":5123,"count":36,"min":[0],"max":[23],"type":"SCALAR","bufferView":2,"byteOffset":508},{"name":"Rectangle214_1_positions","componentType":5126,"count":24,"min":[-76.99870300292969,146.99549865722656,-22],"max":[77.00129699707031,149.99549865722656,50],"type":"VEC3","bufferView":0,"byteOffset":1584},{"name":"Rectangle214_1_normals","componentType":5126,"count":24,"min":[-1,-1,-0.707099974155426],"max":[1,1,1],"type":"VEC3","bufferView":0,"byteOffset":9360},{"name":"Rectangle214_1_texcoords","componentType":5126,"count":24,"min":[0,0],"max":[1,1],"type":"VEC2","bufferView":1,"byteOffset":1056},{"name":"Rectangle214_1_0_indices","componentType":5123,"count":36,"min":[0],"max":[23],"type":"SCALAR","bufferView":2,"byteOffset":580},{"name":"Rectangle215_1_positions","componentType":5126,"count":24,"min":[-76.99870300292969,86.99549865722656,-22],"max":[77.00129699707031,89.99549865722656,50],"type":"VEC3","bufferView":0,"byteOffset":1872},{"name":"Rectangle215_1_normals","componentType":5126,"count":24,"min":[-1,-1,-0.707099974155426],"max":[1,1,1],"type":"VEC3","bufferView":0,"byteOffset":9648},{"name":"Rectangle215_1_texcoords","componentType":5126,"count":24,"min":[0,0],"max":[1,1],"type":"VEC2","bufferView":1,"byteOffset":1248},{"name":"Rectangle215_1_0_indices","componentType":5123,"count":36,"min":[0],"max":[23],"type":"SCALAR","bufferView":2,"byteOffset":652},{"name":"Rectangle216_1_positions","componentType":5126,"count":24,"min":[-76.9988021850586,83.99549865722656,-22],"max":[77.0011978149414,89.99549865722656,-19],"type":"VEC3","bufferView":0,"byteOffset":2160},{"name":"Rectangle216_1_normals","componentType":5126,"count":24,"min":[-1,-1,-1],"max":[1,0.707099974155426,1],"type":"VEC3","bufferView":0,"byteOffset":9936},{"name":"Rectangle216_1_texcoords","componentType":5126,"count":24,"min":[0,0],"max":[1,0.541700005531311],"type":"VEC2","bufferView":1,"byteOffset":1440},{"name":"Rectangle216_1_0_indices","componentType":5123,"count":36,"min":[0],"max":[23],"type":"SCALAR","bufferView":2,"byteOffset":724},{"name":"Rectangle001_1_positions","componentType":5126,"count":150,"min":[77.0011978149414,0,-23],"max":[80.00129699707031,386.15740966796875,53],"type":"VEC3","bufferView":0,"byteOffset":2448},{"name":"Rectangle001_1_normals","componentType":5126,"count":150,"min":[-1,-1,-1],"max":[1,1,1],"type":"VEC3","bufferView":0,"byteOffset":10224},{"name":"Rectangle001_1_texcoords","componentType":5126,"count":150,"min":[0,0],"max":[1,1],"type":"VEC2","bufferView":1,"byteOffset":1632},{"name":"Rectangle001_1_0_indices","componentType":5123,"count":216,"min":[0],"max":[77],"type":"SCALAR","bufferView":2,"byteOffset":796},{"name":"Rectangle001_1_1_indices","componentType":5123,"count":102,"min":[78],"max":[113],"type":"SCALAR","bufferView":2,"byteOffset":1228},{"name":"Rectangle001_1_2_indices","componentType":5123,"count":102,"min":[114],"max":[149],"type":"SCALAR","bufferView":2,"byteOffset":1432},{"name":"Rectangle367_1_positions","componentType":5126,"count":150,"min":[-79.9988021850586,0,-23],"max":[-76.99870300292969,386.15740966796875,53],"type":"VEC3","bufferView":0,"byteOffset":4248},{"name":"Rectangle367_1_normals","componentType":5126,"count":150,"min":[-1,-1,-1],"max":[1,1,1],"type":"VEC3","bufferView":0,"byteOffset":12024},{"name":"Rectangle367_1_texcoords","componentType":5126,"count":150,"min":[0,0],"max":[1,1],"type":"VEC2","bufferView":1,"byteOffset":2832},{"name":"Rectangle367_1_0_indices","componentType":5123,"count":102,"min":[114],"max":[149],"type":"SCALAR","bufferView":2,"byteOffset":1636},{"name":"Rectangle367_1_1_indices","componentType":5123,"count":216,"min":[0],"max":[77],"type":"SCALAR","bufferView":2,"byteOffset":1840},{"name":"Rectangle367_1_2_indices","componentType":5123,"count":102,"min":[78],"max":[113],"type":"SCALAR","bufferView":2,"byteOffset":2272},{"name":"Rectangle397_1_positions","componentType":5126,"count":24,"min":[-76.99870300292969,206.99549865722656,-22],"max":[77.00129699707031,209.99549865722656,50],"type":"VEC3","bufferView":0,"byteOffset":6048},{"name":"Rectangle397_1_normals","componentType":5126,"count":24,"min":[-1,-1,-0.707099974155426],"max":[1,1,1],"type":"VEC3","bufferView":0,"byteOffset":13824},{"name":"Rectangle397_1_texcoords","componentType":5126,"count":24,"min":[0,0],"max":[1,1],"type":"VEC2","bufferView":1,"byteOffset":4032},{"name":"Rectangle397_1_0_indices","componentType":5123,"count":36,"min":[0],"max":[23],"type":"SCALAR","bufferView":2,"byteOffset":2476},{"name":"Rectangle419_1_positions","componentType":5126,"count":24,"min":[-76.9988021850586,203.99549865722656,-22],"max":[77.0011978149414,209.99549865722656,-19],"type":"VEC3","bufferView":0,"byteOffset":6336},{"name":"Rectangle419_1_normals","componentType":5126,"count":24,"min":[-1,-1,-1],"max":[1,0.707099974155426,1],"type":"VEC3","bufferView":0,"byteOffset":14112},{"name":"Rectangle419_1_texcoords","componentType":5126,"count":24,"min":[0,0],"max":[1,0.541700005531311],"type":"VEC2","bufferView":1,"byteOffset":4224},{"name":"Rectangle419_1_0_indices","componentType":5123,"count":36,"min":[0],"max":[23],"type":"SCALAR","bufferView":2,"byteOffset":2548},{"name":"Rectangle453_1_positions","componentType":5126,"count":24,"min":[-76.99870300292969,266.9955139160156,-22],"max":[77.00129699707031,269.9955139160156,50],"type":"VEC3","bufferView":0,"byteOffset":6624},{"name":"Rectangle453_1_normals","componentType":5126,"count":24,"min":[-1,-1,-0.707099974155426],"max":[1,1,1],"type":"VEC3","bufferView":0,"byteOffset":14400},{"name":"Rectangle453_1_texcoords","componentType":5126,"count":24,"min":[0,0],"max":[1,1],"type":"VEC2","bufferView":1,"byteOffset":4416},{"name":"Rectangle453_1_0_indices","componentType":5123,"count":36,"min":[0],"max":[23],"type":"SCALAR","bufferView":2,"byteOffset":2620},{"name":"Rectangle471_1_positions","componentType":5126,"count":24,"min":[-76.9988021850586,263.9955139160156,-22],"max":[77.0011978149414,269.9955139160156,-19],"type":"VEC3","bufferView":0,"byteOffset":6912},{"name":"Rectangle471_1_normals","componentType":5126,"count":24,"min":[-1,-1,-1],"max":[1,0.707099974155426,1],"type":"VEC3","bufferView":0,"byteOffset":14688},{"name":"Rectangle471_1_texcoords","componentType":5126,"count":24,"min":[0,0],"max":[1,0.541700005531311],"type":"VEC2","bufferView":1,"byteOffset":4608},{"name":"Rectangle471_1_0_indices","componentType":5123,"count":36,"min":[0],"max":[23],"type":"SCALAR","bufferView":2,"byteOffset":2692},{"name":"Rectangle489_1_positions","componentType":5126,"count":24,"min":[-76.99870300292969,326.9955139160156,-22],"max":[77.00129699707031,329.9955139160156,50],"type":"VEC3","bufferView":0,"byteOffset":7200},{"name":"Rectangle489_1_normals","componentType":5126,"count":24,"min":[-1,-1,-0.707099974155426],"max":[1,1,1],"type":"VEC3","bufferView":0,"byteOffset":14976},{"name":"Rectangle489_1_texcoords","componentType":5126,"count":24,"min":[0,0],"max":[1,1],"type":"VEC2","bufferView":1,"byteOffset":4800},{"name":"Rectangle489_1_0_indices","componentType":5123,"count":36,"min":[0],"max":[23],"type":"SCALAR","bufferView":2,"byteOffset":2764},{"name":"Rectangle523_1_positions","componentType":5126,"count":24,"min":[-76.9988021850586,323.9955139160156,-22],"max":[77.0011978149414,329.9955139160156,-19],"type":"VEC3","bufferView":0,"byteOffset":7488},{"name":"Rectangle523_1_normals","componentType":5126,"count":24,"min":[-1,-1,-1],"max":[1,0.707099974155426,1],"type":"VEC3","bufferView":0,"byteOffset":15264},{"name":"Rectangle523_1_texcoords","componentType":5126,"count":24,"min":[0,0],"max":[1,0.541700005531311],"type":"VEC2","bufferView":1,"byteOffset":4992},{"name":"Rectangle523_1_0_indices","componentType":5123,"count":36,"min":[0],"max":[23],"type":"SCALAR","bufferView":2,"byteOffset":2836}],"asset":{"generator":"obj2gltf","version":"2.0"},"buffers":[{"name":"ESNI_Colorbook","byteLength":23644,"uri":"data:application/octet-stream;base64,"}],"bufferViews":[{"name":"bufferView_0","buffer":0,"byteLength":15552,"byteOffset":0,"byteStride":12,"target":34962},{"name":"bufferView_1","buffer":0,"byteLength":5184,"byteOffset":15552,"byteStride":8,"target":34962},{"name":"bufferView_2","buffer":0,"byteLength":2908,"byteOffset":20736,"target":34963}],"materials":[{"name":"Ceramic","pbrMetallicRoughness":{"baseColorFactor":[0.588,0.588,0.588,1],"metallicFactor":0,"roughnessFactor":0.99},"emissiveFactor":[0,0,0],"alphaMode":"OPAQUE","doubleSided":false},{"name":"wire_088177027","pbrMetallicRoughness":{"baseColorFactor":[0.3451,0.6941,0.1059,1],"metallicFactor":0,"roughnessFactor":0.968},"emissiveFactor":[0,0,0],"alphaMode":"OPAQUE","doubleSided":false},{"name":"trasera","pbrMetallicRoughness":{"baseColorFactor":[0.5882,0.5882,0.5882,1],"metallicFactor":0,"roughnessFactor":0.887339},"emissiveFactor":[0,0,0],"alphaMode":"OPAQUE","doubleSided":false},{"name":"BSSS","pbrMetallicRoughness":{"baseColorFactor":[0.5882,0.5882,0.5882,1],"metallicFactor":0,"roughnessFactor":0.887339},"emissiveFactor":[0,0,0],"alphaMode":"OPAQUE","doubleSided":false},{"name":"04___Default","pbrMetallicRoughness":{"baseColorFactor":[0.588,0.588,0.588,1],"metallicFactor":0,"roughnessFactor":0.99},"emissiveFactor":[0,0,0],"alphaMode":"OPAQUE","doubleSided":false},{"name":"wire_140088225","pbrMetallicRoughness":{"baseColorFactor":[0.549,0.3451,0.8824,1],"metallicFactor":0,"roughnessFactor":0.968},"emissiveFactor":[0,0,0],"alphaMode":"OPAQUE","doubleSided":false},{"name":"lateral","pbrMetallicRoughness":{"baseColorFactor":[0.5882,0.5882,0.5882,1],"metallicFactor":0,"roughnessFactor":0.887339},"emissiveFactor":[0,0,0],"alphaMode":"OPAQUE","doubleSided":false},{"name":"lateral_02","pbrMetallicRoughness":{"baseColorFactor":[0.5882,0.5882,0.5882,1],"metallicFactor":0,"roughnessFactor":0.887339},"emissiveFactor":[0,0,0],"alphaMode":"OPAQUE","doubleSided":false}],"meshes":[{"name":"Rectangle002_1","primitives":[{"attributes":{"POSITION":0,"NORMAL":1,"TEXCOORD_0":2},"indices":3,"material":0,"mode":4}]},{"name":"Rectangle007_1","primitives":[{"attributes":{"POSITION":4,"NORMAL":5,"TEXCOORD_0":6},"indices":7,"material":1,"mode":4},{"attributes":{"POSITION":4,"NORMAL":5,"TEXCOORD_0":6},"indices":8,"material":2,"mode":4},{"attributes":{"POSITION":4,"NORMAL":5,"TEXCOORD_0":6},"indices":9,"material":3,"mode":4}]},{"name":"Rectangle213_1","primitives":[{"attributes":{"POSITION":10,"NORMAL":11,"TEXCOORD_0":12},"indices":13,"material":4,"mode":4}]},{"name":"Rectangle214_1","primitives":[{"attributes":{"POSITION":14,"NORMAL":15,"TEXCOORD_0":16},"indices":17,"material":0,"mode":4}]},{"name":"Rectangle215_1","primitives":[{"attributes":{"POSITION":18,"NORMAL":19,"TEXCOORD_0":20},"indices":21,"material":0,"mode":4}]},{"name":"Rectangle216_1","primitives":[{"attributes":{"POSITION":22,"NORMAL":23,"TEXCOORD_0":24},"indices":25,"material":4,"mode":4}]},{"name":"Rectangle001_1","primitives":[{"attributes":{"POSITION":26,"NORMAL":27,"TEXCOORD_0":28},"indices":29,"material":5,"mode":4},{"attributes":{"POSITION":26,"NORMAL":27,"TEXCOORD_0":28},"indices":30,"material":6,"mode":4},{"attributes":{"POSITION":26,"NORMAL":27,"TEXCOORD_0":28},"indices":31,"material":7,"mode":4}]},{"name":"Rectangle367_1","primitives":[{"attributes":{"POSITION":32,"NORMAL":33,"TEXCOORD_0":34},"indices":35,"material":7,"mode":4},{"attributes":{"POSITION":32,"NORMAL":33,"TEXCOORD_0":34},"indices":36,"material":5,"mode":4},{"attributes":{"POSITION":32,"NORMAL":33,"TEXCOORD_0":34},"indices":37,"material":6,"mode":4}]},{"name":"Rectangle397_1","primitives":[{"attributes":{"POSITION":38,"NORMAL":39,"TEXCOORD_0":40},"indices":41,"material":0,"mode":4}]},{"name":"Rectangle419_1","primitives":[{"attributes":{"POSITION":42,"NORMAL":43,"TEXCOORD_0":44},"indices":45,"material":4,"mode":4}]},{"name":"Rectangle453_1","primitives":[{"attributes":{"POSITION":46,"NORMAL":47,"TEXCOORD_0":48},"indices":49,"material":0,"mode":4}]},{"name":"Rectangle471_1","primitives":[{"attributes":{"POSITION":50,"NORMAL":51,"TEXCOORD_0":52},"indices":53,"material":4,"mode":4}]},{"name":"Rectangle489_1","primitives":[{"attributes":{"POSITION":54,"NORMAL":55,"TEXCOORD_0":56},"indices":57,"material":0,"mode":4}]},{"name":"Rectangle523_1","primitives":[{"attributes":{"POSITION":58,"NORMAL":59,"TEXCOORD_0":60},"indices":61,"material":4,"mode":4}]}],"nodes":[{"name":"Rectangle002","mesh":0},{"name":"Rectangle007","mesh":1},{"name":"Rectangle213","mesh":2},{"name":"Rectangle214","mesh":3},{"name":"Rectangle215","mesh":4},{"name":"Rectangle216","mesh":5},{"name":"Rectangle001","mesh":6},{"name":"Rectangle367","mesh":7},{"name":"Rectangle397","mesh":8},{"name":"Rectangle419","mesh":9},{"name":"Rectangle453","mesh":10},{"name":"Rectangle471","mesh":11},{"name":"Rectangle489","mesh":12},{"name":"Rectangle523","mesh":13}],"scene":0,"scenes":[{"nodes":[0,1,2,3,4,5,6,7,8,9,10,11,12,13]}]}
