{"accessors":[{"name":"Rectangle002_1_positions","componentType":5126,"count":24,"min":[-38.500003814697266,-18.000017166137695,0],"max":[38.5000114440918,18.000011444091797,15],"type":"VEC3","bufferView":0,"byteOffset":0},{"name":"Rectangle002_1_normals","componentType":5126,"count":24,"min":[-1,-1,-1],"max":[1,1,1],"type":"VEC3","bufferView":0,"byteOffset":7776},{"name":"Rectangle002_1_texcoords","componentType":5126,"count":24,"min":[0,0],"max":[1,1],"type":"VEC2","bufferView":1,"byteOffset":0},{"name":"Rectangle002_1_0_indices","componentType":5123,"count":36,"min":[0],"max":[23],"type":"SCALAR","bufferView":2,"byteOffset":0},{"name":"Rectangle007_1_positions","componentType":5126,"count":84,"min":[-38.488243103027344,17.99995994567871,0],"max":[38.499996185302734,19.500009536743164,200],"type":"VEC3","bufferView":0,"byteOffset":288},{"name":"Rectangle007_1_normals","componentType":5126,"count":84,"min":[-1,-1,-1],"max":[1,1,1],"type":"VEC3","bufferView":0,"byteOffset":8064},{"name":"Rectangle007_1_texcoords","componentType":5126,"count":84,"min":[0,0],"max":[1,1.5757360458374023],"type":"VEC2","bufferView":1,"byteOffset":192},{"name":"Rectangle007_1_0_indices","componentType":5123,"count":216,"min":[0],"max":[83],"type":"SCALAR","bufferView":2,"byteOffset":72},{"name":"Rectangle213_1_positions","componentType":5126,"count":24,"min":[-38.4999885559082,-18.0000057220459,71.99772644042969],"max":[38.5000114440918,-16.499996185302734,74.99774169921875],"type":"VEC3","bufferView":0,"byteOffset":1296},{"name":"Rectangle213_1_normals","componentType":5126,"count":24,"min":[-1,-1,-1],"max":[1,1,0.7071070075035095],"type":"VEC3","bufferView":0,"byteOffset":9072},{"name":"Rectangle213_1_texcoords","componentType":5126,"count":24,"min":[0,0],"max":[1,0.5416669845581055],"type":"VEC2","bufferView":1,"byteOffset":864},{"name":"Rectangle213_1_0_indices","componentType":5123,"count":36,"min":[0],"max":[23],"type":"SCALAR","bufferView":2,"byteOffset":504},{"name":"Rectangle214_1_positions","componentType":5126,"count":24,"min":[-38.500003814697266,-18.00002098083496,73.49774169921875],"max":[38.5000114440918,18.0000057220459,74.99774169921875],"type":"VEC3","bufferView":0,"byteOffset":1584},{"name":"Rectangle214_1_normals","componentType":5126,"count":24,"min":[-1,-0.7071070075035095,-1],"max":[1,1,1],"type":"VEC3","bufferView":0,"byteOffset":9360},{"name":"Rectangle214_1_texcoords","componentType":5126,"count":24,"min":[0,0],"max":[1,1],"type":"VEC2","bufferView":1,"byteOffset":1056},{"name":"Rectangle214_1_0_indices","componentType":5123,"count":36,"min":[0],"max":[23],"type":"SCALAR","bufferView":2,"byteOffset":576},{"name":"Rectangle215_1_positions","componentType":5126,"count":24,"min":[-38.500003814697266,-18.000019073486328,43.49774169921875],"max":[38.5000114440918,18.00000762939453,44.99774169921875],"type":"VEC3","bufferView":0,"byteOffset":1872},{"name":"Rectangle215_1_normals","componentType":5126,"count":24,"min":[-1,-0.7071070075035095,-1],"max":[1,1,1],"type":"VEC3","bufferView":0,"byteOffset":9648},{"name":"Rectangle215_1_texcoords","componentType":5126,"count":24,"min":[0,0],"max":[1,1],"type":"VEC2","bufferView":1,"byteOffset":1248},{"name":"Rectangle215_1_0_indices","componentType":5123,"count":36,"min":[0],"max":[23],"type":"SCALAR","bufferView":2,"byteOffset":648},{"name":"Rectangle216_1_positions","componentType":5126,"count":24,"min":[-38.4999885559082,-18.0000057220459,41.99772644042969],"max":[38.5000114440918,-16.4999942779541,44.99774169921875],"type":"VEC3","bufferView":0,"byteOffset":2160},{"name":"Rectangle216_1_normals","componentType":5126,"count":24,"min":[-1,-1,-1],"max":[1,1,0.7071070075035095],"type":"VEC3","bufferView":0,"byteOffset":9936},{"name":"Rectangle216_1_texcoords","componentType":5126,"count":24,"min":[0,0],"max":[1,0.5416669845581055],"type":"VEC2","bufferView":1,"byteOffset":1440},{"name":"Rectangle216_1_0_indices","componentType":5123,"count":36,"min":[0],"max":[23],"type":"SCALAR","bufferView":2,"byteOffset":720},{"name":"Rectangle001_1_positions","componentType":5126,"count":150,"min":[-40.00002670288086,-18.50002098083496,0],"max":[-38.49998474121094,19.499982833862305,193.07870483398438],"type":"VEC3","bufferView":0,"byteOffset":2448},{"name":"Rectangle001_1_normals","componentType":5126,"count":150,"min":[-1,-1,-1],"max":[1,1,1],"type":"VEC3","bufferView":0,"byteOffset":10224},{"name":"Rectangle001_1_texcoords","componentType":5126,"count":150,"min":[0,0],"max":[1,1],"type":"VEC2","bufferView":1,"byteOffset":1632},{"name":"Rectangle001_1_0_indices","componentType":5123,"count":420,"min":[0],"max":[149],"type":"SCALAR","bufferView":2,"byteOffset":792},{"name":"Rectangle367_1_positions","componentType":5126,"count":150,"min":[38.499996185302734,-18.4999942779541,0],"max":[40.00004577636719,19.50001335144043,193.07870483398438],"type":"VEC3","bufferView":0,"byteOffset":4248},{"name":"Rectangle367_1_normals","componentType":5126,"count":150,"min":[-1,-1,-1],"max":[1,1,1],"type":"VEC3","bufferView":0,"byteOffset":12024},{"name":"Rectangle367_1_texcoords","componentType":5126,"count":150,"min":[0,0],"max":[1,1],"type":"VEC2","bufferView":1,"byteOffset":2832},{"name":"Rectangle367_1_0_indices","componentType":5123,"count":420,"min":[0],"max":[149],"type":"SCALAR","bufferView":2,"byteOffset":1632},{"name":"Rectangle397_1_positions","componentType":5126,"count":24,"min":[-38.500003814697266,-18.00002098083496,103.49774169921875],"max":[38.5000114440918,18.0000057220459,104.99774169921875],"type":"VEC3","bufferView":0,"byteOffset":6048},{"name":"Rectangle397_1_normals","componentType":5126,"count":24,"min":[-1,-0.7071070075035095,-1],"max":[1,1,1],"type":"VEC3","bufferView":0,"byteOffset":13824},{"name":"Rectangle397_1_texcoords","componentType":5126,"count":24,"min":[0,0],"max":[1,1],"type":"VEC2","bufferView":1,"byteOffset":4032},{"name":"Rectangle397_1_0_indices","componentType":5123,"count":36,"min":[0],"max":[23],"type":"SCALAR","bufferView":2,"byteOffset":2472},{"name":"Rectangle419_1_positions","componentType":5126,"count":24,"min":[-38.4999885559082,-18.0000057220459,101.99772644042969],"max":[38.5000114440918,-16.499996185302734,104.99774169921875],"type":"VEC3","bufferView":0,"byteOffset":6336},{"name":"Rectangle419_1_normals","componentType":5126,"count":24,"min":[-1,-1,-1],"max":[1,1,0.7071070075035095],"type":"VEC3","bufferView":0,"byteOffset":14112},{"name":"Rectangle419_1_texcoords","componentType":5126,"count":24,"min":[0,0],"max":[1,0.5416669845581055],"type":"VEC2","bufferView":1,"byteOffset":4224},{"name":"Rectangle419_1_0_indices","componentType":5123,"count":36,"min":[0],"max":[23],"type":"SCALAR","bufferView":2,"byteOffset":2544},{"name":"Rectangle453_1_positions","componentType":5126,"count":24,"min":[-38.500003814697266,-18.000022888183594,133.49774169921875],"max":[38.5000114440918,18.000003814697266,134.99774169921875],"type":"VEC3","bufferView":0,"byteOffset":6624},{"name":"Rectangle453_1_normals","componentType":5126,"count":24,"min":[-1,-0.7071070075035095,-1],"max":[1,1,1],"type":"VEC3","bufferView":0,"byteOffset":14400},{"name":"Rectangle453_1_texcoords","componentType":5126,"count":24,"min":[0,0],"max":[1,1],"type":"VEC2","bufferView":1,"byteOffset":4416},{"name":"Rectangle453_1_0_indices","componentType":5123,"count":36,"min":[0],"max":[23],"type":"SCALAR","bufferView":2,"byteOffset":2616},{"name":"Rectangle471_1_positions","componentType":5126,"count":24,"min":[-38.4999885559082,-18.000009536743164,131.9977264404297],"max":[38.5000114440918,-16.499998092651367,134.99774169921875],"type":"VEC3","bufferView":0,"byteOffset":6912},{"name":"Rectangle471_1_normals","componentType":5126,"count":24,"min":[-1,-1,-1],"max":[1,1,0.7071070075035095],"type":"VEC3","bufferView":0,"byteOffset":14688},{"name":"Rectangle471_1_texcoords","componentType":5126,"count":24,"min":[0,0],"max":[1,0.5416669845581055],"type":"VEC2","bufferView":1,"byteOffset":4608},{"name":"Rectangle471_1_0_indices","componentType":5123,"count":36,"min":[0],"max":[23],"type":"SCALAR","bufferView":2,"byteOffset":2688},{"name":"Rectangle489_1_positions","componentType":5126,"count":24,"min":[-38.500003814697266,-18.000022888183594,163.49774169921875],"max":[38.5000114440918,18.000003814697266,164.99774169921875],"type":"VEC3","bufferView":0,"byteOffset":7200},{"name":"Rectangle489_1_normals","componentType":5126,"count":24,"min":[-1,-0.7071070075035095,-1],"max":[1,1,1],"type":"VEC3","bufferView":0,"byteOffset":14976},{"name":"Rectangle489_1_texcoords","componentType":5126,"count":24,"min":[0,0],"max":[1,1],"type":"VEC2","bufferView":1,"byteOffset":4800},{"name":"Rectangle489_1_0_indices","componentType":5123,"count":36,"min":[0],"max":[23],"type":"SCALAR","bufferView":2,"byteOffset":2760},{"name":"Rectangle523_1_positions","componentType":5126,"count":24,"min":[-38.4999885559082,-18.000009536743164,161.9977264404297],"max":[38.5000114440918,-16.499998092651367,164.99774169921875],"type":"VEC3","bufferView":0,"byteOffset":7488},{"name":"Rectangle523_1_normals","componentType":5126,"count":24,"min":[-1,-1,-1],"max":[1,1,0.7071070075035095],"type":"VEC3","bufferView":0,"byteOffset":15264},{"name":"Rectangle523_1_texcoords","componentType":5126,"count":24,"min":[0,0],"max":[1,0.5416669845581055],"type":"VEC2","bufferView":1,"byteOffset":4992},{"name":"Rectangle523_1_0_indices","componentType":5123,"count":36,"min":[0],"max":[23],"type":"SCALAR","bufferView":2,"byteOffset":2832}],"asset":{"generator":"obj2gltf","version":"2.0"},"buffers":[{"name":"mueble","byteLength":23640,"uri":"data:application/octet-stream;base64,"}],"bufferViews":[{"name":"bufferView_0","buffer":0,"byteLength":15552,"byteOffset":0,"byteStride":12,"target":34962},{"name":"bufferView_1","buffer":0,"byteLength":5184,"byteOffset":15552,"byteStride":8,"target":34962},{"name":"bufferView_2","buffer":0,"byteLength":2904,"byteOffset":20736,"target":34963}],"materials":[{"name":"wire_198225087","pbrMetallicRoughness":{"baseColorFactor":[0.776471,0.882353,0.341176,1],"metallicFactor":0,"roughnessFactor":0.968},"emissiveFactor":[0,0,0],"alphaMode":"OPAQUE","doubleSided":false},{"name":"wire_088177027","pbrMetallicRoughness":{"baseColorFactor":[0.345098,0.694118,0.105882,1],"metallicFactor":0,"roughnessFactor":0.968},"emissiveFactor":[0,0,0],"alphaMode":"OPAQUE","doubleSided":false},{"name":"wire_008110135","pbrMetallicRoughness":{"baseColorFactor":[0.031373,0.431373,0.529412,1],"metallicFactor":0,"roughnessFactor":0.968},"emissiveFactor":[0,0,0],"alphaMode":"OPAQUE","doubleSided":false},{"name":"wire_140088225","pbrMetallicRoughness":{"baseColorFactor":[0.54902,0.345098,0.882353,1],"metallicFactor":0,"roughnessFactor":0.968},"emissiveFactor":[0,0,0],"alphaMode":"OPAQUE","doubleSided":false}],"meshes":[{"name":"Rectangle002_1","primitives":[{"attributes":{"POSITION":0,"NORMAL":1,"TEXCOORD_0":2},"indices":3,"material":0,"mode":4}]},{"name":"Rectangle007_1","primitives":[{"attributes":{"POSITION":4,"NORMAL":5,"TEXCOORD_0":6},"indices":7,"material":1,"mode":4}]},{"name":"Rectangle213_1","primitives":[{"attributes":{"POSITION":8,"NORMAL":9,"TEXCOORD_0":10},"indices":11,"material":2,"mode":4}]},{"name":"Rectangle214_1","primitives":[{"attributes":{"POSITION":12,"NORMAL":13,"TEXCOORD_0":14},"indices":15,"material":0,"mode":4}]},{"name":"Rectangle215_1","primitives":[{"attributes":{"POSITION":16,"NORMAL":17,"TEXCOORD_0":18},"indices":19,"material":0,"mode":4}]},{"name":"Rectangle216_1","primitives":[{"attributes":{"POSITION":20,"NORMAL":21,"TEXCOORD_0":22},"indices":23,"material":2,"mode":4}]},{"name":"Rectangle001_1","primitives":[{"attributes":{"POSITION":24,"NORMAL":25,"TEXCOORD_0":26},"indices":27,"material":3,"mode":4}]},{"name":"Rectangle367_1","primitives":[{"attributes":{"POSITION":28,"NORMAL":29,"TEXCOORD_0":30},"indices":31,"material":3,"mode":4}]},{"name":"Rectangle397_1","primitives":[{"attributes":{"POSITION":32,"NORMAL":33,"TEXCOORD_0":34},"indices":35,"material":0,"mode":4}]},{"name":"Rectangle419_1","primitives":[{"attributes":{"POSITION":36,"NORMAL":37,"TEXCOORD_0":38},"indices":39,"material":2,"mode":4}]},{"name":"Rectangle453_1","primitives":[{"attributes":{"POSITION":40,"NORMAL":41,"TEXCOORD_0":42},"indices":43,"material":0,"mode":4}]},{"name":"Rectangle471_1","primitives":[{"attributes":{"POSITION":44,"NORMAL":45,"TEXCOORD_0":46},"indices":47,"material":2,"mode":4}]},{"name":"Rectangle489_1","primitives":[{"attributes":{"POSITION":48,"NORMAL":49,"TEXCOORD_0":50},"indices":51,"material":0,"mode":4}]},{"name":"Rectangle523_1","primitives":[{"attributes":{"POSITION":52,"NORMAL":53,"TEXCOORD_0":54},"indices":55,"material":2,"mode":4}]}],"nodes":[{"name":"Rectangle002","mesh":0},{"name":"Rectangle007","mesh":1},{"name":"Rectangle213","mesh":2},{"name":"Rectangle214","mesh":3},{"name":"Rectangle215","mesh":4},{"name":"Rectangle216","mesh":5},{"name":"Rectangle001","mesh":6},{"name":"Rectangle367","mesh":7},{"name":"Rectangle397","mesh":8},{"name":"Rectangle419","mesh":9},{"name":"Rectangle453","mesh":10},{"name":"Rectangle471","mesh":11},{"name":"Rectangle489","mesh":12},{"name":"Rectangle523","mesh":13}],"scene":0,"scenes":[{"nodes":[0,1,2,3,4,5,6,7,8,9,10,11,12,13]}]}
