{"accessors":[{"name":"Teapot001_1_positions","componentType":5126,"count":646,"min":[-67.75370025634766,0,-303.03900146484375],"max":[147.91799926757812,105.6865005493164,-168.83399963378906],"type":"VEC3","bufferView":0,"byteOffset":0},{"name":"Teapot001_1_normals","componentType":5126,"count":646,"min":[-0.9977999925613403,-1,-0.9998999834060669],"max":[0.9995999932289124,1,0.9998000264167786],"type":"VEC3","bufferView":0,"byteOffset":7752},{"name":"Teapot001_1_texcoords","componentType":5126,"count":646,"min":[0,-1053.0438232421875],"max":[1054.0438232421875,1],"type":"VEC2","bufferView":1,"byteOffset":0},{"name":"Teapot001_1_0_indices","componentType":5123,"count":2976,"min":[0],"max":[645],"type":"SCALAR","bufferView":2,"byteOffset":0}],"asset":{"generator":"obj2gltf","version":"2.0"},"buffers":[{"name":"input","byteLength":26624,"uri":"data:application/octet-stream;base64,"}],"bufferViews":[{"name":"bufferView_0","buffer":0,"byteLength":15504,"byteOffset":0,"byteStride":12,"target":34962},{"name":"bufferView_1","buffer":0,"byteLength":5168,"byteOffset":15504,"byteStride":8,"target":34962},{"name":"bufferView_2","buffer":0,"byteLength":5952,"byteOffset":20672,"target":34963}],"materials":[{"name":"default","pbrMetallicRoughness":{"baseColorFactor":[0.5,0.5,0.5,1],"metallicFactor":0,"roughnessFactor":1},"emissiveFactor":[0,0,0],"alphaMode":"OPAQUE","doubleSided":false}],"meshes":[{"name":"Teapot001_1","primitives":[{"attributes":{"POSITION":0,"NORMAL":1,"TEXCOORD_0":2},"indices":3,"material":0,"mode":4}]}],"nodes":[{"name":"Teapot001","mesh":0}],"scene":0,"scenes":[{"nodes":[0]}]}
